<?xml version="1.0" encoding="UTF-8"?>
<!DOCTYPE svg PUBLIC "-//W3C//DTD SVG 1.1//EN" "http://www.w3.org/Graphics/SVG/1.1/DTD/svg11.dtd">
<!-- Creator: CorelDRAW -->
<svg xmlns="http://www.w3.org/2000/svg" xml:space="preserve" width="91.4398mm" height="162.56mm" version="1.1" style="shape-rendering:geometricPrecision; text-rendering:geometricPrecision; image-rendering:optimizeQuality; fill-rule:evenodd; clip-rule:evenodd"
viewBox="0 0 9143.98 16255.98"
 xmlns:xlink="http://www.w3.org/1999/xlink"
 xmlns:xodm="http://www.corel.com/coreldraw/odm/2003">
 <defs>
  <style type="text/css">
   <![CDATA[
    .str0 {stroke:#201E1E;stroke-width:16.93;stroke-miterlimit:22.9256}
    .fil3 {fill:none}
    .fil0 {fill:#201E1E}
    .fil1 {fill:#8EE123;fill-rule:nonzero}
    .fil2 {fill:white;fill-rule:nonzero}
   ]]>
  </style>
   <clipPath id="id0">
    <path d="M4571.99 4795.57c1840.44,0 3332.42,1491.98 3332.42,3332.42 0,1840.44 -1491.98,3332.42 -3332.42,3332.42 -1840.44,0 -3332.42,-1491.98 -3332.42,-3332.42 0,-1840.44 1491.98,-3332.42 3332.42,-3332.42z"/>
   </clipPath>
 </defs>
 <g id="Camada_x0020_1">
  <metadata id="CorelCorpID_0Corel-Layer"/>
  <path class="fil0" d="M4571.99 4795.57c1840.44,0 3332.42,1491.98 3332.42,3332.42 0,1840.44 -1491.98,3332.42 -3332.42,3332.42 -1840.44,0 -3332.42,-1491.98 -3332.42,-3332.42 0,-1840.44 1491.98,-3332.42 3332.42,-3332.42z"/>
  <g style="clip-path:url(#id0)">
   <g id="_3092120131744">
    <g>
     <polygon id="_1" class="fil1" points="6041.98,6661.81 7135.93,6661.81 6673.03,7524.37 7241.1,7524.37 5870.54,9594.19 5868.03,9594.19 6231.28,8071.29 5537.02,8071.29 "/>
     <path class="fil2" d="M1902.88 8605.96l0 -1175.53 253.03 0 33.58 120.92c43.29,-50.77 95.91,-88.83 157.85,-114.2 61.94,-25.39 130.25,-38.07 204.88,-38.07 173.16,0 302.29,64.19 387.37,192.56 47.76,-61.19 107.84,-108.59 180.23,-142.17 72.41,-33.6 153.39,-50.39 242.95,-50.39 150.77,0 270.56,46.65 359.38,139.94 88.82,93.31 133.22,220.57 133.22,381.77l0 685.17 -340.33 0 0 -644.86c0,-83.6 -20.53,-149.65 -61.58,-198.16 -41.05,-48.52 -96.65,-72.78 -166.81,-72.78 -73.15,0 -131.37,25.38 -174.65,76.14 -43.29,50.74 -64.94,118.67 -64.94,203.75l0 635.91 -335.86 0 0 -644.86c0,-83.6 -20.52,-149.65 -61.58,-198.16 -41.04,-48.52 -96.65,-72.78 -166.8,-72.78 -73.15,0 -131.37,25.38 -174.66,76.14 -43.28,50.74 -64.93,118.67 -64.93,203.75l0 635.91 -340.35 0z"/>
     <path class="fil2" d="M3991.86 8605.96l0 -1175.53 340.35 0 0 1175.53 -340.35 0zm-49.26 -1556.18c0,-62.7 20.53,-113.82 61.58,-153.37 41.04,-39.56 93.68,-59.34 157.86,-59.34 65.69,0 118.67,19.78 158.97,59.34 40.31,39.55 60.46,90.67 60.46,153.37 0,62.7 -20.15,113.83 -60.46,153.39 -40.3,39.55 -93.28,59.33 -158.97,59.33 -64.18,0 -116.82,-19.78 -157.86,-59.33 -41.05,-39.56 -61.58,-90.69 -61.58,-153.39z"/>
     <path class="fil2" d="M5057.65 8605.96c-149.28,0 -263.85,-38.44 -343.71,-115.31 -79.85,-76.87 -119.79,-186.97 -119.79,-330.27l0 -452.31 -228.38 0 0 -277.64 105.23 0c64.19,0 107.86,-10.45 130.99,-31.34 23.13,-20.9 39.18,-61.2 48.14,-120.91l20.15 -152.26 264.21 0 0 304.51 322.44 0 0 277.64 -322.44 0 0 400.81c0,134.34 65.69,201.52 197.04,201.52l141.07 0 0 295.56 -214.95 0z"/>
     <path class="fil2" d="M5910.69 8637.31c-125.38,0 -236.22,-26.12 -332.51,-78.38 -96.27,-52.24 -171.29,-125.01 -225.03,-218.3 -53.73,-93.3 -80.6,-201.15 -80.6,-323.56 0,-122.4 27.24,-229.87 81.72,-322.42 54.49,-92.56 129.87,-164.95 226.16,-217.2 96.28,-52.24 207.85,-78.37 334.73,-78.37 134.36,0 250.42,29.86 348.2,89.57 97.77,59.71 172.4,143.3 223.9,250.77 51.49,107.49 73.51,232.87 66.05,376.17l-942.66 0c16.42,80.62 52.24,142.18 107.47,184.73 55.24,42.55 121.67,63.82 199.29,63.82 56.73,0 108.59,-10.82 155.61,-32.47 47.03,-21.65 84.72,-51.87 113.08,-90.68l344.82 0c-50.75,123.9 -130.62,220.92 -239.59,291.08 -108.97,70.16 -235.85,105.24 -380.64,105.24zm-297.8 -736.66l611.27 0c-19.4,-71.66 -55.59,-128.01 -108.58,-169.05 -53.01,-41.06 -119.06,-61.59 -198.17,-61.59 -74.63,0 -139.2,20.53 -193.68,61.59 -54.49,41.04 -91.43,97.39 -110.84,169.05z"/>
     <path class="fil2" d="M2003.57 9107.28c-18.36,0 -34.26,-3.12 -47.71,-9.35 -13.44,-6.23 -23.82,-14.97 -31.15,-26.23 -7.32,-11.26 -11.09,-24.32 -11.31,-39.18l28.86 0c0.43,14.64 6.28,26.18 17.54,34.59 11.26,8.41 25.84,12.62 43.77,12.62 16.18,0 29.02,-3.16 38.52,-9.51 9.52,-6.33 14.27,-15.18 14.27,-26.55 0,-10.71 -4.59,-19.3 -13.77,-25.74 -9.18,-6.45 -24.15,-12.08 -44.92,-16.89 -28.2,-6.77 -48.86,-15.46 -61.97,-26.07 -13.12,-10.59 -19.67,-24.75 -19.67,-42.46 0,-19.45 7.37,-34.86 22.13,-46.23 14.75,-11.36 34.7,-17.05 59.84,-17.05 25.8,0 46.18,6.46 61.15,19.36 14.97,12.89 22.56,30.48 22.78,52.78l-28.52 0c-0.23,-13.77 -5.31,-24.65 -15.25,-32.63 -9.95,-7.98 -23.33,-11.97 -40.16,-11.97 -16.4,0 -29.25,3.23 -38.53,9.68 -9.29,6.44 -13.93,15.13 -13.93,26.06 0,9.41 4.31,17.33 12.95,23.77 8.63,6.45 24.1,12.41 46.39,17.87 29.3,7.23 50.17,16.24 62.63,27.05 12.46,10.83 18.69,24.65 18.69,41.48 0,19.9 -7.49,35.63 -22.46,47.22 -14.97,11.59 -35.03,17.38 -60.17,17.38z"/>
     <path class="fil2" d="M2380.87 9106.95c-27.77,0 -49.46,-8.63 -65.09,-25.91 -15.63,-17.26 -23.44,-41.09 -23.44,-71.47l0 -136.08 28.53 0 0 134.11c0,23.39 5.13,41.1 15.41,53.12 10.27,12.02 25.13,18.03 44.59,18.03 40,0 60,-23.72 60,-71.15l0 -134.11 28.86 0 0 136.08c0,30.38 -7.87,54.21 -23.61,71.47 -15.74,17.28 -37.49,25.91 -65.25,25.91z"/>
     <path class="fil2" d="M2689.62 9103.01l0 -229.52 77.7 0c17.27,0 32.29,3.18 45.08,9.52 12.79,6.33 22.68,15.24 29.68,26.72 7,11.47 10.49,25.08 10.49,40.82 0,15.74 -3.49,29.34 -10.49,40.82 -7,11.47 -16.89,20.38 -29.68,26.72 -12.79,6.34 -27.81,9.51 -45.08,9.51l-48.85 0 0 75.41 -28.85 0zm28.85 -102.3l48.2 0c37.59,0 56.39,-16.61 56.39,-49.84 0,-33.21 -18.8,-49.82 -56.39,-49.82l-48.2 0 0 99.66z"/>
     <path class="fil2" d="M3054.78 9103.01l0 -229.52 77.71 0c17.27,0 32.29,3.18 45.08,9.52 12.78,6.33 22.68,15.24 29.68,26.72 7,11.47 10.49,25.08 10.49,40.82 0,15.74 -3.49,29.34 -10.49,40.82 -7,11.47 -16.9,20.38 -29.68,26.72 -12.79,6.34 -27.81,9.51 -45.08,9.51l-48.85 0 0 75.41 -28.86 0zm28.86 -102.3l48.2 0c37.59,0 56.39,-16.61 56.39,-49.84 0,-33.21 -18.8,-49.82 -56.39,-49.82l-48.2 0 0 99.66z"/>
     <polygon class="fil2" points="3419.96,9103.01 3419.96,8873.49 3448.81,8873.49 3448.81,9075.47 3560.29,9075.47 3560.29,9103.01 "/>
     <polygon class="fil2" points="3759.57,9103.01 3759.57,8873.49 3898.92,8873.49 3898.92,8900.38 3788.42,8900.38 3788.42,8972.84 3890.72,8972.84 3890.72,8999.4 3788.42,8999.4 3788.42,9076.13 3902.53,9076.13 3902.53,9103.01 "/>
     <polygon class="fil2" points="4112.95,9103.01 4112.95,8873.49 4139.84,8873.49 4230,9009.57 4319.52,8873.49 4346.4,8873.49 4346.4,9103.01 4317.55,9103.01 4317.55,8927.6 4241.48,9042.03 4217.87,9042.03 4141.8,8927.27 4141.8,9103.01 "/>
     <polygon class="fil2" points="4568.86,9103.01 4568.86,8873.49 4708.21,8873.49 4708.21,8900.38 4597.72,8900.38 4597.72,8972.84 4700.02,8972.84 4700.02,8999.4 4597.72,8999.4 4597.72,9076.13 4711.82,9076.13 4711.82,9103.01 "/>
     <polygon class="fil2" points="4922.24,9103.01 4922.24,8873.49 4949.46,8873.49 5076.35,9053.17 5076.35,8873.49 5104.55,8873.49 5104.55,9103.01 5077.66,9103.01 4950.77,8923.33 4950.77,9103.01 "/>
     <polygon class="fil2" points="5382.46,9103.01 5382.46,8901.05 5304.76,8901.05 5304.76,8873.49 5488.7,8873.49 5488.7,8901.05 5411.32,8901.05 5411.32,9103.01 "/>
     <path class="fil2" d="M5765.67 9107.28c-18.37,0 -34.27,-3.12 -47.71,-9.35 -13.45,-6.23 -23.83,-14.97 -31.15,-26.23 -7.33,-11.26 -11.1,-24.32 -11.31,-39.18l28.85 0c0.43,14.64 6.28,26.18 17.54,34.59 11.26,8.41 25.84,12.62 43.78,12.62 16.17,0 29.01,-3.16 38.51,-9.51 9.52,-6.33 14.27,-15.18 14.27,-26.55 0,-10.71 -4.59,-19.3 -13.77,-25.74 -9.18,-6.45 -24.15,-12.08 -44.92,-16.89 -28.19,-6.77 -48.85,-15.46 -61.97,-26.07 -13.11,-10.59 -19.67,-24.75 -19.67,-42.46 0,-19.45 7.38,-34.86 22.13,-46.23 14.76,-11.36 34.71,-17.05 59.84,-17.05 25.8,0 46.18,6.46 61.15,19.36 14.97,12.89 22.56,30.48 22.79,52.78l-28.53 0c-0.22,-13.77 -5.3,-24.65 -15.24,-32.63 -9.95,-7.98 -23.33,-11.97 -40.17,-11.97 -16.39,0 -29.24,3.23 -38.53,9.68 -9.29,6.44 -13.93,15.13 -13.93,26.06 0,9.41 4.31,17.33 12.95,23.77 8.63,6.45 24.1,12.41 46.4,17.87 29.29,7.23 50.16,16.24 62.62,27.05 12.46,10.83 18.69,24.65 18.69,41.48 0,19.9 -7.49,35.63 -22.46,47.22 -14.97,11.59 -35.03,17.38 -60.16,17.38z"/>
    </g>
   </g>
  </g>
  <path class="fil3 str0" d="M4571.99 4795.57c1840.44,0 3332.42,1491.98 3332.42,3332.42 0,1840.44 -1491.98,3332.42 -3332.42,3332.42 -1840.44,0 -3332.42,-1491.98 -3332.42,-3332.42 0,-1840.44 1491.98,-3332.42 3332.42,-3332.42z"/>
 </g>
</svg>
